<svg id="visual" viewBox="0 0 1920 1080" width="1920" height="1080" xmlns="http://www.w3.org/2000/svg" xmlns:xlink="http://www.w3.org/1999/xlink" version="1.1"><rect x="0" y="0" width="1920" height="1080" fill="#fff"></rect><path d="M1185 1080L1203.7 1044C1222.3 1008 1259.7 936 1279.2 864C1298.7 792 1300.3 720 1287 648C1273.7 576 1245.3 504 1230.2 432C1215 360 1213 288 1227.7 216C1242.3 144 1273.7 72 1289.3 36L1305 0L1920 0L1920 36C1920 72 1920 144 1920 216C1920 288 1920 360 1920 432C1920 504 1920 576 1920 648C1920 720 1920 792 1920 864C1920 936 1920 1008 1920 1044L1920 1080Z" fill="#00adb5" stroke-linecap="round" stroke-linejoin="miter"></path></svg>